# xmcd
#
# Track frame offsets: 
#        150
#        23088
#        45115
#        67480
#        90894
#        113358
#        132263
#        155407
#        178225
#        210281
#
# Disc length: 3122 seconds
#
# Revision: 0
# Processed by: cddbd v1.5.2PL0 Copyright (c) Steve Scherf et al.
# Submitted via: ExactAudioCopy v0.95b4
#
DISCID=750c300a
DTITLE=charlie and the welfare - Cross the lines
DYEAR=2007
DGENRE=Blues
TTITLE0=roll over shuffle
TTITLE1=crank it up
TTITLE2=cross the lines
TTITLE3=never let go
TTITLE4=good times in hollywood
TTITLE5=mistery
TTITLE6=hooked on you
TTITLE7=take it home
TTITLE8=freeway
TTITLE9=out of town
EXTD=
EXTT0=
EXTT1=
EXTT2=
EXTT3=
EXTT4=
EXTT5=
EXTT6=
EXTT7=
EXTT8=
EXTT9=
PLAYORDER=
